<svg xmlns="http://www.w3.org/2000/svg" xmlns:xlink="http://www.w3.org/1999/xlink" viewBox="0 0 65.988 40.988" fill="#fff" fill-rule="evenodd" stroke="#000" stroke-linecap="round" stroke-linejoin="round"><use xlink:href="#B" x=".494" y=".494"/><defs><linearGradient id="A" x1="6.03%" y1="7.21%" x2="95.70%" y2="99.46%"><stop offset="0%" stop-color="#f60e0e"/><stop offset="1%" stop-color="#f66629"/></linearGradient></defs><symbol id="B" overflow="visible"><path d="M27.96 8.32c-.696-.903-1.074-2.012-1.073-3.153A5.17 5.17 0 0 1 32.055 0a5.17 5.17 0 0 1 5.167 5.167 5.16 5.16 0 0 1-1.057 3.132l8.81 12.078 8.746-5.774a5.05 5.05 0 0 1-.053-.734 5.17 5.17 0 0 1 5.167-5.167 5.17 5.17 0 0 1 5.167 5.167c0 2.506-1.778 4.6-4.15 5.068L56.96 30.203c1.315.974 2.09 2.513 2.088 4.15a5.17 5.17 0 0 1-5.167 5.167 5.17 5.17 0 0 1-5.167-5.167c0-.926.25-1.836.72-2.633L44.2 24.537l-7.533 4.99c3.777.34 7.647 1.087 11.762 2.21-.533.773-.717 1.73-.626 2.826-11.445-3.026-20.744-2.984-31.508-.003.05-1.013-.06-1.976-.507-2.835 4.048-1.16 7.904-1.9 11.7-2.225L19.9 24.5l-5.216 7.172c.494.794.755 1.72.755 2.687a5.17 5.17 0 0 1-5.167 5.167 5.17 5.17 0 0 1-5.167-5.167c-.001-1.574.716-3.063 1.95-4.043L4.2 18.943A5.17 5.17 0 0 1 0 13.868a5.17 5.17 0 0 1 5.167-5.167 5.17 5.17 0 0 1 5.167 5.167c0 .24-.017.478-.05.713l8.877 5.863zM51.74 29.65l.01-.005L52.818 32c-.924.418-1.518 1.34-1.518 2.353 0 1.426 1.158 2.582 2.583 2.582s2.582-1.156 2.582-2.582-1.156-2.583-2.582-2.583v-2.584l2.71-10.664 1.12-2.328a2.58 2.58 0 0 0 1.121.256c1.426 0 2.583-1.156 2.583-2.582s-1.158-2.583-2.583-2.583-2.583 1.156-2.583 2.583a2.59 2.59 0 0 0 .682 1.749l-1.893 1.74v.01l-8.262 5.47zM17.416 22.85l-8.39-5.56-1.928-1.716a2.58 2.58 0 0 0 .653-1.716c0-1.427-1.158-2.583-2.583-2.583s-2.582 1.156-2.582 2.583a2.58 2.58 0 0 0 2.582 2.582c.37 0 .738-.08 1.087-.234l1.073 2.34L10 29.193l.14 2.57a2.58 2.58 0 0 0-2.44 2.569c0 1.426 1.156 2.583 2.582 2.583s2.583-1.156 2.583-2.583c0-1.004-.58-1.917-1.49-2.34l1.094-2.35zm24.978-.77L33.63 10.083l.003-.002-.8-2.454a2.59 2.59 0 0 0 1.792-2.47c0-1.426-1.158-2.583-2.583-2.583s-2.58 1.167-2.58 2.593c0 1.106.706 2.092 1.756 2.447l-.827 2.442.003.003L21.65 22.1l10.36 6.843z" stroke="none" fill="url(#A)" fill-rule="nonzero"/></symbol></svg>